<svg id="Layer_1" data-name="Layer 1" xmlns="http://www.w3.org/2000/svg" viewBox="0 0 260 100"><defs><style>.cls-1{fill:#e49273;}.cls-2{fill:#111827;}</style></defs><path class="cls-1" d="M45.42,93.57V80.13l1.3-.49,4.92-1.84,15-40.16C56.87,24.69,42,18.24,42,4.66a4.7,4.7,0,0,0-8.62-2.55c-24.19,35.36,10.18,37,10.18,54.14a12.5,12.5,0,0,1-12.66,12.5A12.63,12.63,0,0,1,18.52,56.06V39.36a4.69,4.69,0,0,0-8.09-3.22A39,39,0,0,0-.23,62.5,37.49,37.49,0,0,0,58.25,93.57H45.42Z"/><path class="cls-2" d="M100.25,8.58l-20.92.58L68,39.61,53.19,79.35l-5.77,2.16V91.57H79V81.51L71.68,79l2.91-8.89h24.9l2.64,9-6.67,2.42V91.57h35.06V81.51L125,79.44ZM79,56l9.11-28.42L95.67,56Z"/><polygon class="cls-2" points="123.86 34.29 135.9 34.29 138.4 23.42 148.29 23.42 148.29 78.9 139.17 81.51 139.17 91.57 177.63 91.57 177.63 81.51 168.63 78.88 168.63 23.42 178.46 23.42 181.02 34.29 192.94 34.29 192.94 8.93 123.86 8.93 123.86 34.29"/><path class="cls-2" d="M256.59,56.5a21.93,21.93,0,0,0-6-7.19,38,38,0,0,0-8.06-4.79,84.33,84.33,0,0,0-8.88-3.33q-4.5-1.41-8.19-2.86a19.92,19.92,0,0,1-5.9-3.45A6.33,6.33,0,0,1,217.37,30a6.2,6.2,0,0,1,1.75-4.56,10,10,0,0,1,4.68-2.51,24.86,24.86,0,0,1,6.31-.76,34.63,34.63,0,0,1,6,.52,39,39,0,0,1,3.9.93l2.47,10.7h12l1.29-21.74A79,79,0,0,0,242.09,8.7a72.18,72.18,0,0,0-13.15-1.29A43.77,43.77,0,0,0,213,10.16a24.42,24.42,0,0,0-11.16,8.3q-4.1,5.55-4.1,14.2A22.88,22.88,0,0,0,200,43.35a20.62,20.62,0,0,0,5.9,7.07A35.83,35.83,0,0,0,213.92,55a85.88,85.88,0,0,0,8.83,3.1c3,.86,5.67,1.77,8.12,2.75a18.84,18.84,0,0,1,5.9,3.5A6.91,6.91,0,0,1,239,69.71a6.68,6.68,0,0,1-1.87,4.85,11.68,11.68,0,0,1-4.9,2.92,21.55,21.55,0,0,1-6.78,1,34.22,34.22,0,0,1-7.25-.82,35,35,0,0,1-5.67-1.76l-2.28-11.22H198.67L198,88.29A76.61,76.61,0,0,0,211.29,92,74.9,74.9,0,0,0,224.5,93.2a51.63,51.63,0,0,0,17.18-2.74,27.25,27.25,0,0,0,12.51-8.54q4.68-5.78,4.68-14.9A22.31,22.31,0,0,0,256.59,56.5Z"/></svg>