<svg id="Layer_1" data-name="Layer 1" xmlns="http://www.w3.org/2000/svg" viewBox="0 0 260 100"><defs><style>.cls-1{fill:#e49273;}.cls-2{fill:#fff;}</style></defs><path class="cls-1" d="M45.53,93.57V80.13l1.3-.49,4.92-1.84,15-40.16C57,24.69,42.07,18.24,42.07,4.66a4.7,4.7,0,0,0-8.62-2.55c-24.19,35.36,10.19,37,10.19,54.14a12.5,12.5,0,1,1-25-.19V39.36a4.69,4.69,0,0,0-8.1-3.22A39.08,39.08,0,0,0-.11,62.5,37.49,37.49,0,0,0,58.37,93.57H45.53Z"/><path class="cls-2" d="M100.36,8.58l-20.92.58L68.1,39.61,53.3,79.35l-5.77,2.17v10H79.09v-10L71.79,79l2.91-8.89H99.6l2.64,9-6.67,2.43v10h35.07v-10l-5.5-2.08ZM79.13,56l9.11-28.43L95.79,56Z"/><polygon class="cls-2" points="123.97 34.29 136.01 34.29 138.51 23.42 148.4 23.42 148.4 78.9 139.28 81.52 139.28 91.57 177.74 91.57 177.74 81.52 168.74 78.88 168.74 23.42 178.57 23.42 181.13 34.29 193.05 34.29 193.05 8.93 123.97 8.93 123.97 34.29"/><path class="cls-2" d="M256.7,56.5a22,22,0,0,0-6-7.19,38.8,38.8,0,0,0-8.07-4.79,86.6,86.6,0,0,0-8.88-3.33c-3-.93-5.73-1.89-8.18-2.86a19.86,19.86,0,0,1-5.91-3.45A6.33,6.33,0,0,1,217.48,30a6.17,6.17,0,0,1,1.76-4.56,10,10,0,0,1,4.67-2.51,24.86,24.86,0,0,1,6.31-.76,34.54,34.54,0,0,1,6,.52,38.31,38.31,0,0,1,3.9.93l2.47,10.7h12l1.29-21.74A79.18,79.18,0,0,0,242.21,8.7a72.26,72.26,0,0,0-13.15-1.29,43.79,43.79,0,0,0-16,2.75,24.48,24.48,0,0,0-11.16,8.3q-4.09,5.55-4.09,14.2a23,23,0,0,0,2.22,10.69,20.85,20.85,0,0,0,5.9,7.07A35.9,35.9,0,0,0,214,55a84.89,84.89,0,0,0,8.82,3.1c3,.86,5.67,1.77,8.12,2.75a18.9,18.9,0,0,1,5.91,3.5,6.91,6.91,0,0,1,2.22,5.32,6.72,6.72,0,0,1-1.87,4.85,11.79,11.79,0,0,1-4.91,2.92,21.55,21.55,0,0,1-6.78,1,34.22,34.22,0,0,1-7.25-.82,34.88,34.88,0,0,1-5.66-1.76l-2.29-11.22H198.78l-.7,23.61A76.71,76.71,0,0,0,211.41,92a74.71,74.71,0,0,0,13.2,1.22,51.69,51.69,0,0,0,17.19-2.74,27.22,27.22,0,0,0,12.5-8.54Q259,76.14,259,67A22.34,22.34,0,0,0,256.7,56.5Z"/></svg>